<svg xmlns="http://www.w3.org/2000/svg" width="24" height="24" id="logo"><path d="M17.2 20.2h-3.9c-3.5 0-6.3-2.8-6.3-6.3v-.2c0-.9-.7-1.6-1.6-1.6H2.8C1.5 12.1.4 11 .4 9.7c0-1.3 1.1-2.4 2.4-2.4h2.6c3.5 0 6.3 2.8 6.3 6.3v.2c0 .9.7 1.6 1.6 1.6h3.9c.9 0 1.6-.7 1.6-1.6 0-1.3 1.1-2.4 2.4-2.4 1.3 0 2.4 1.1 2.4 2.4 0 3.6-2.9 6.4-6.4 6.4zM2.8 8.3c-.8 0-1.4.6-1.4 1.4 0 .8.6 1.4 1.4 1.4h2.6c1.4 0 2.6 1.1 2.6 2.6v.2c0 3 2.4 5.4 5.3 5.4h3.9c2.9 0 5.3-2.4 5.3-5.3 0-.8-.6-1.4-1.4-1.4-.8 0-1.4.6-1.4 1.4 0 1.4-1.1 2.6-2.6 2.6h-3.9c-1.4 0-2.6-1.1-2.6-2.6V13.7c0-2.9-2.4-5.3-5.3-5.3H2.8z"></path><path d="M13.6 11.3c-1.1 0-2-1.2-2-2.8s.9-2.8 2-2.8 2 1.2 2 2.8-.9 2.8-2 2.8zm0-4.6c-.5 0-1 .8-1 1.8s.5 1.8 1 1.8 1-.8 1-1.8-.5-1.8-1-1.8zM18.1 10.4c-1.2 0-2.2-1.4-2.2-3.3 0-1.8.9-3.3 2.2-3.3 1.2 0 2.2 1.4 2.2 3.3-.1 1.8-1 3.3-2.2 3.3zm0-5.6c-.5 0-1.2 1-1.2 2.3 0 1.3.6 2.3 1.2 2.3.5 0 1.2-.9 1.2-2.3-.1-1.3-.7-2.3-1.2-2.3z"></path></svg>